<?xml version="1.0" encoding="UTF-8" standalone="no"?>
<!-- Created with Inkscape (http://www.inkscape.org/) -->

<svg
   xmlns:dc="http://purl.org/dc/elements/1.1/"
   xmlns:cc="http://creativecommons.org/ns#"
   xmlns:rdf="http://www.w3.org/1999/02/22-rdf-syntax-ns#"
   xmlns:svg="http://www.w3.org/2000/svg"
   xmlns="http://www.w3.org/2000/svg"
   xmlns:sodipodi="http://sodipodi.sourceforge.net/DTD/sodipodi-0.dtd"
   xmlns:inkscape="http://www.inkscape.org/namespaces/inkscape"
   width="1024"
   height="500"
   viewBox="0 0 270.93334 132.29168"
   version="1.1"
   id="svg8"
   sodipodi:docname="simon-sings-splash.svg"
   inkscape:version="0.92.2 (5c3e80d, 2017-08-06)"
   inkscape:export-filename="E:\Desktop\splash-1024x500.png"
   inkscape:export-xdpi="96"
   inkscape:export-ydpi="96">
  <defs
     id="defs2" />
  <sodipodi:namedview
     id="base"
     pagecolor="#ffffff"
     bordercolor="#666666"
     borderopacity="1.0"
     inkscape:pageopacity="0.0"
     inkscape:pageshadow="2"
     inkscape:zoom="0.49497475"
     inkscape:cx="1075.9531"
     inkscape:cy="236.29394"
     inkscape:document-units="mm"
     inkscape:current-layer="layer2"
     showgrid="false"
     units="px"
     showguides="true"
     inkscape:guide-bbox="true"
     inkscape:window-width="1920"
     inkscape:window-height="1017"
     inkscape:window-x="-8"
     inkscape:window-y="-8"
     inkscape:window-maximized="1">
    <inkscape:grid
       type="xygrid"
       id="grid4508" />
    <sodipodi:guide
       position="-34.210501,-270.47677"
       orientation="0.70710678,0.70710678"
       id="guide4518"
       inkscape:locked="false" />
  </sodipodi:namedview>
  <metadata
     id="metadata5">
    <rdf:RDF>
      <cc:Work
         rdf:about="">
        <dc:format>image/svg+xml</dc:format>
        <dc:type
           rdf:resource="http://purl.org/dc/dcmitype/StillImage" />
        <dc:title></dc:title>
      </cc:Work>
    </rdf:RDF>
  </metadata>
  <g
     inkscape:groupmode="layer"
     id="layer2"
     inkscape:label="Layer 2"
     transform="translate(0,-138.64168)">
    <text
       xml:space="preserve"
       style="font-style:normal;font-variant:normal;font-weight:300;font-stretch:normal;font-size:51.59224319px;line-height:32;font-family:Corbel;-inkscape-font-specification:'Corbel, Light';font-variant-ligatures:normal;font-variant-caps:normal;font-variant-numeric:normal;font-feature-settings:normal;text-align:start;letter-spacing:0px;word-spacing:0px;writing-mode:lr-tb;text-anchor:start;fill:#000000;fill-opacity:1;stroke:none;stroke-width:0.69099581"
       x="8.6903057"
       y="256.22629"
       id="text4564"><tspan
         sodipodi:role="line"
         id="tspan4562"
         x="8.6903057"
         y="256.22629"
         style="font-style:normal;font-variant:normal;font-weight:300;font-stretch:normal;font-size:51.59224319px;font-family:Corbel;-inkscape-font-specification:'Corbel, Light';font-variant-ligatures:normal;font-variant-caps:normal;font-variant-numeric:normal;font-feature-settings:normal;text-align:start;writing-mode:lr-tb;text-anchor:start;stroke-width:0.69099581">Simon Sings</tspan></text>
  </g>
  <g
     inkscape:label="Layer 1"
     inkscape:groupmode="layer"
     id="layer1"
     transform="translate(0,-164.70833)">
    <g
       id="g846"
       transform="matrix(0.8210253,0,0,0.8210253,15.140713,51.741277)">
      <circle
         r="44.777786"
         cy="160.26906"
         cx="146.53333"
         id="path4514"
         style="fill:#0277bd;fill-opacity:1;fill-rule:evenodd;stroke-width:0.07462964"
         transform="translate(0,26.06665)" />
      <path
         inkscape:connector-curvature="0"
         id="path4550"
         d="m 148.5793,128.47989 -12.53848,4.85662 -4.7043,9.77029 1.80931,9.95099 19.54043,7.05634 9.4084,6.33257 1.26638,8.6846 -4.88499,9.77014 -15.37906,3.6186 -10.85581,-2.89482 -4.6137,5.51835 4.6137,4.61368 8.93124,8.93107 a 44.777787,44.777787 0 0 0 5.36092,0.35839 44.777787,44.777787 0 0 0 44.77778,-44.77778 44.777787,44.777787 0 0 0 -0.42433,-5.73943 l -13.77495,-13.77493 -9.58926,-9.58925 -4.52327,1.8093 z"
         style="opacity:0.4;fill:#000000;stroke:#000000;stroke-width:0.08955556px;stroke-linecap:butt;stroke-linejoin:miter;stroke-opacity:1"
         transform="translate(0,26.06665)" />
      <path
         inkscape:connector-curvature="0"
         id="text4506"
         d="m 148.57923,154.54642 c -5.73189,0 -10.37618,1.48429 -13.93289,4.45311 -3.52731,2.96884 -5.29094,6.90778 -5.29094,11.81661 0,3.40974 0.79363,6.1287 2.38091,8.15691 1.58729,1.9988 3.542,3.48328 5.86415,4.4533 2.32214,0.94061 5.39386,1.89575 9.21513,2.86577 4.40914,1.20517 7.46616,2.27814 9.17105,3.21875 1.70487,0.94061 3.04231,2.18998 4.01234,3.74786 0.9994,1.55791 1.499,3.52729 1.499,5.90824 0,4.73248 -1.46961,8.08336 -4.40904,10.05279 -2.91004,1.96941 -7.01068,2.9541 -12.30164,2.9541 -2.14579,0 -4.85007,-0.4115 -8.11284,-1.23454 -0.1695,-0.0428 -0.33497,-0.0856 -0.49954,-0.1286 a 6.0642192,6.0642192 0 0 0 -5.99341,-5.17639 6.0642192,6.0642192 0 0 0 -6.06407,6.06425 6.0642192,6.0642192 0 0 0 6.06407,6.06425 6.0642192,6.0642192 0 0 0 5.32804,-3.16961 c 0.12527,0.0314 0.24267,0.0624 0.37133,0.0938 2.99823,0.73486 5.87888,1.10213 8.64195,1.10213 6.70189,0 11.86064,-1.46961 15.47615,-4.40902 3.6449,-2.96885 5.46725,-7.09884 5.46725,-12.38982 0,-3.6155 -0.85235,-6.46662 -2.55724,-8.55361 -1.67547,-2.11638 -3.65971,-3.6449 -5.95246,-4.58551 -2.29276,-0.97003 -5.46727,-2.01363 -9.52368,-3.13061 -3.61549,-0.99941 -6.33446,-1.88112 -8.15691,-2.64538 -1.82244,-0.76426 -3.27753,-1.85191 -4.36512,-3.26284 -1.0582,-1.41092 -1.58716,-3.35093 -1.58716,-5.82006 0,-3.90944 1.2198,-7.0399 3.65953,-9.39143 2.46912,-2.35155 6.24636,-3.5273 11.33157,-3.5273 2.14578,0.0295 4.11518,0.23514 5.90822,0.61727 1.01043,0.21185 1.93172,0.44716 2.77046,0.70419 a 6.0642192,6.0642192 0 0 0 -0.17265,1.40736 6.0642192,6.0642192 0 0 0 6.06424,6.06407 6.0642192,6.0642192 0 0 0 6.06426,-6.06407 6.0642192,6.0642192 0 0 0 -6.06426,-6.06424 6.0642192,6.0642192 0 0 0 -3.7524,1.30169 c -3.43721,-0.99487 -6.95485,-1.49357 -10.5534,-1.49357 z"
         style="font-style:normal;font-variant:normal;font-weight:300;font-stretch:normal;font-size:266.78067017px;line-height:32;font-family:Corbel;-inkscape-font-specification:'Corbel, Light';font-variant-ligatures:normal;font-variant-caps:normal;font-variant-numeric:normal;font-feature-settings:normal;text-align:start;letter-spacing:0px;word-spacing:0px;writing-mode:lr-tb;text-anchor:start;fill:#000000;fill-opacity:1;stroke:none;stroke-width:1.20935857" />
    </g>
  </g>
</svg>
