<?xml version="1.0" encoding="UTF-8" standalone="no"?>
<svg
   xmlns:dc="http://purl.org/dc/elements/1.1/"
   xmlns:cc="http://creativecommons.org/ns#"
   xmlns:rdf="http://www.w3.org/1999/02/22-rdf-syntax-ns#"
   xmlns:svg="http://www.w3.org/2000/svg"
   xmlns="http://www.w3.org/2000/svg"
   xmlns:sodipodi="http://sodipodi.sourceforge.net/DTD/sodipodi-0.dtd"
   xmlns:inkscape="http://www.inkscape.org/namespaces/inkscape"
   width="1800"
   height="212"
   viewBox="0 0 1800 212"
   version="1.2"
   id="svg1119"
   sodipodi:docname="staff-black-key-1-1.svg"
   inkscape:version="0.92.2 (5c3e80d, 2017-08-06)">
  <metadata
     id="metadata1125">
    <rdf:RDF>
      <cc:Work
         rdf:about="">
        <dc:format>image/svg+xml</dc:format>
        <dc:type
           rdf:resource="http://purl.org/dc/dcmitype/StillImage" />
        <dc:title>Untitled-2</dc:title>
      </cc:Work>
    </rdf:RDF>
  </metadata>
  <defs
     id="defs1123" />
  <sodipodi:namedview
     pagecolor="#ffffff"
     bordercolor="#666666"
     borderopacity="1"
     objecttolerance="10"
     gridtolerance="10"
     guidetolerance="10"
     inkscape:pageopacity="0"
     inkscape:pageshadow="2"
     inkscape:window-width="1920"
     inkscape:window-height="1017"
     id="namedview1121"
     showgrid="false"
     showguides="false"
     inkscape:zoom="0.4459596"
     inkscape:cx="1530"
     inkscape:cy="311.68743"
     inkscape:window-x="-8"
     inkscape:window-y="-8"
     inkscape:window-maximized="1"
     inkscape:current-layer="svg1119" />
  <title
     id="title1047">Untitled-2</title>
  <desc
     id="desc1049">Generated by MuseScore 3.0.5</desc>
  <polyline
     class="StaffLines"
     points="141.732,316.732 2918.27,316.732"
     id="polyline1051"
     transform="matrix(0.63892517,0,0,1,-81.365478,-272.1)"
     style="fill:none;stroke:#000000;stroke-width:2;stroke-linejoin:bevel" />
  <polyline
     class="StaffLines"
     points="141.732,341.732 2918.27,341.732"
     id="polyline1053"
     transform="matrix(0.63892517,0,0,1,-79.365477,-271.1)"
     style="fill:none;stroke:#000000;stroke-width:2;stroke-linejoin:bevel" />
  <polyline
     class="StaffLines"
     points="141.732,366.732 2918.27,366.732"
     id="polyline1055"
     transform="matrix(0.63892517,0,0,1,-79.365477,-271.1)"
     style="fill:none;stroke:#000000;stroke-width:2;stroke-linejoin:bevel" />
  <polyline
     class="StaffLines"
     points="141.732,391.732 2918.27,391.732"
     id="polyline1057"
     transform="matrix(0.63892517,0,0,1,-79.365477,-271.1)"
     style="fill:none;stroke:#000000;stroke-width:2;stroke-linejoin:bevel" />
  <polyline
     class="StaffLines"
     points="141.732,416.732 2918.27,416.732"
     id="polyline1059"
     transform="matrix(0.63892517,0,0,1,-79.365477,-271.1)"
     style="fill:none;stroke:#000000;stroke-width:2;stroke-linejoin:bevel" />
  <polyline
     class="BarLine"
     points="2916.27,315.732 2916.27,417.732"
     id="polyline1061"
     transform="translate(-1130.5414,-271.1)"
     style="fill:none;stroke:#000000;stroke-width:4;stroke-linejoin:bevel" />
  <path
     class="Accidental"
     d="m 1396.4786,139.3 c 0,1.2 -0.61,1.8 -1.85,1.8 -1.23,0 -1.85,-0.6 -1.85,-1.8 v -14.5 l -8.3,3.1 v 15.8 c 0,1.3 -0.62,1.9 -1.86,1.9 -1.24,0 -1.86,-0.6 -1.86,-1.9 v -14.5 l -3.12,1.2 c -0.06,0 -0.32,0.1 -0.78,0.1 -0.52,0 -0.98,-0.2 -1.37,-0.6 -0.39,-0.4 -0.58,-0.9 -0.58,-1.4 v -6 c 0,-1 0.42,-1.6 1.26,-1.9 l 4.59,-1.6 v -16 l -3.12,1.1 c -0.06,0.1 -0.32,0.1 -0.78,0.1 -0.52,0 -0.98,-0.2 -1.37,-0.6 -0.39,-0.4 -0.58,-0.8 -0.58,-1.4 v -6 c 0,-0.9 0.42,-1.5 1.26,-1.8 l 4.59,-1.7 V 76.9 c 0,-1.2 0.62,-1.8 1.86,-1.8 1.24,0 1.86,0.6 1.86,1.8 v 14.5 l 8.3,-3.1 V 72.5 c 0,-1.3 0.62,-1.9 1.85,-1.9 1.24,0 1.85,0.6 1.85,1.9 V 87 l 3.24,-1.2 c 0.06,0 0.28,-0.1 0.67,-0.1 0.46,0 0.95,0.2 1.47,0.6 0.39,0.4 0.59,0.9 0.59,1.4 v 6 c 0,1 -0.46,1.6 -1.37,1.9 l -4.6,1.6 v 16 l 3.24,-1.1 c 0.06,-0.1 0.28,-0.1 0.67,-0.1 0.46,0 0.95,0.2 1.47,0.6 0.39,0.4 0.59,0.8 0.59,1.4 v 6 c 0,0.9 -0.46,1.4 -1.37,1.8 l -4.6,1.7 v 15.8 m -3.7,-40.7 -8.3,2.9 v 16.1 l 8.3,-3 v -16"
     id="path1067"
     inkscape:connector-curvature="0" />
  <path
     class="Accidental"
     d="m 1155.8286,151.8 c 0,1.2 -0.62,1.8 -1.85,1.8 -1.23,0 -1.85,-0.6 -1.85,-1.8 v -14.5 l -8.3,3.1 v 15.8 c 0,1.3 -0.62,1.9 -1.86,1.9 -1.24,0 -1.86,-0.6 -1.86,-1.9 v -14.5 l -3.12,1.2 c -0.06,0 -0.33,0.1 -0.78,0.1 -0.52,0 -0.98,-0.2 -1.37,-0.6 -0.39,-0.4 -0.59,-0.9 -0.59,-1.4 v -6 c 0,-1 0.43,-1.6 1.27,-1.9 l 4.59,-1.6 v -16 l -3.12,1.1 c -0.06,0.1 -0.33,0.1 -0.78,0.1 -0.52,0 -0.98,-0.2 -1.37,-0.6 -0.39,-0.4 -0.59,-0.8 -0.59,-1.4 v -6 c 0,-0.9 0.43,-1.5 1.27,-1.8 l 4.59,-1.7 V 89.4 c 0,-1.2 0.62,-1.8 1.86,-1.8 1.24,0 1.86,0.6 1.86,1.8 v 14.5 l 8.3,-3.1 V 85 c 0,-1.3 0.62,-1.9 1.85,-1.9 1.23,0 1.85,0.6 1.85,1.9 v 14.5 l 3.24,-1.2 c 0.06,0 0.28,-0.1 0.67,-0.1 0.46,0 0.95,0.2 1.47,0.6 0.39,0.4 0.59,0.9 0.59,1.4 v 6 c 0,1 -0.46,1.6 -1.37,1.9 l -4.6,1.6 v 16 l 3.24,-1.1 c 0.06,-0.1 0.28,-0.1 0.67,-0.1 0.46,0 0.95,0.2 1.47,0.6 0.39,0.4 0.59,0.8 0.59,1.4 v 6 c 0,0.9 -0.46,1.4 -1.37,1.8 l -4.6,1.7 v 15.8 m -3.7,-40.7 -8.3,2.9 v 16.1 l 8.3,-3 v -16"
     id="path1069"
     inkscape:connector-curvature="0" />
  <path
     class="Accidental"
     d="m 915.17864,164.3 c 0,1.2 -0.62,1.8 -1.85,1.8 -1.24,0 -1.85,-0.6 -1.85,-1.8 v -14.5 l -8.3,3.1 v 15.8 c 0,1.3 -0.62,1.9 -1.86,1.9 -1.24,0 -1.86,-0.6 -1.86,-1.9 v -14.5 l -3.12,1.2 c -0.07,0 -0.33,0.1 -0.79,0.1 -0.52,0 -0.97,-0.2 -1.36,-0.6 -0.39,-0.4 -0.59,-0.9 -0.59,-1.4 v -6 c 0,-1 0.42,-1.6 1.27,-1.9 l 4.59,-1.6 v -16 l -3.12,1.1 c -0.07,0.1 -0.33,0.1 -0.79,0.1 -0.52,0 -0.97,-0.2 -1.36,-0.6 -0.39,-0.4 -0.59,-0.8 -0.59,-1.4 v -6 c 0,-0.9 0.42,-1.5 1.27,-1.8 l 4.59,-1.7 v -15.8 c 0,-1.2 0.62,-1.8 1.86,-1.8 1.24,0 1.86,0.6 1.86,1.8 v 14.5 l 8.3,-3.1 V 97.5 c 0,-1.3 0.61,-1.9 1.85,-1.9 1.23,0 1.85,0.6 1.85,1.9 V 112 l 3.23,-1.2 c 0.07,0 0.29,-0.1 0.68,-0.1 0.45,0 0.94,0.2 1.46,0.6 0.4,0.4 0.6,0.9 0.6,1.4 v 6 c 0,1 -0.46,1.6 -1.38,1.9 l -4.59,1.6 v 16 l 3.23,-1.1 c 0.07,-0.1 0.29,-0.1 0.68,-0.1 0.45,0 0.94,0.2 1.46,0.6 0.4,0.4 0.6,0.8 0.6,1.4 v 6 c 0,0.9 -0.46,1.4 -1.38,1.8 l -4.59,1.7 v 15.8 m -3.7,-40.7 -8.3,2.9 v 16.1 l 8.3,-3 v -16"
     id="path1071"
     inkscape:connector-curvature="0" />
  <path
     class="Accidental"
     d="m 554.20066,189.3 c 0,1.2 -0.618,1.8 -1.852,1.8 -1.234,0 -1.851,-0.6 -1.851,-1.8 v -14.5 l -8.297,3.1 v 15.8 c 0,1.3 -0.62,1.9 -1.86,1.9 -1.239,0 -1.859,-0.6 -1.859,-1.9 v -14.5 l -3.125,1.2 c -0.063,0 -0.323,0.1 -0.781,0.1 -0.521,0 -0.977,-0.2 -1.368,-0.6 -0.39,-0.4 -0.585,-0.9 -0.585,-1.4 v -6 c 0,-1 0.421,-1.6 1.265,-1.9 l 4.594,-1.6 v -16 l -3.125,1.1 c -0.063,0.1 -0.323,0.1 -0.781,0.1 -0.521,0 -0.977,-0.2 -1.368,-0.6 -0.39,-0.4 -0.585,-0.8 -0.585,-1.4 v -6 c 0,-0.9 0.421,-1.5 1.265,-1.8 l 4.594,-1.7 v -15.8 c 0,-1.2 0.62,-1.8 1.859,-1.8 1.24,0 1.86,0.6 1.86,1.8 v 14.5 l 8.297,-3.1 v -15.8 c 0,-1.3 0.617,-1.9 1.851,-1.9 1.234,0 1.852,0.6 1.852,1.9 V 137 l 3.234,-1.2 c 0.063,0 0.286,-0.1 0.672,-0.1 0.458,0 0.948,0.2 1.469,0.6 0.395,0.4 0.593,0.9 0.593,1.4 v 6 c 0,1 -0.458,1.6 -1.375,1.9 l -4.593,1.6 v 16 l 3.234,-1.1 c 0.063,-0.1 0.286,-0.1 0.672,-0.1 0.458,0 0.948,0.2 1.469,0.6 0.395,0.4 0.593,0.8 0.593,1.4 v 6 c 0,0.9 -0.458,1.4 -1.375,1.8 l -4.593,1.7 v 15.8 m -3.703,-40.7 -8.297,2.9 v 16.1 l 8.297,-3 v -16"
     id="path1073"
     inkscape:connector-curvature="0" />
  <path
     class="Accidental"
     d="m 308.54866,201.8 c 0,1.2 -0.618,2.2 -1.852,2.2 -1.234,0 -1.851,-1 -1.851,-2.2 v -14.5 l -8.297,3.1 V 206 c 0,1 -0.62,2 -1.86,2 -1.239,0 -1.859,-1 -1.859,-2 v -14.3 l -3.125,1.2 c -0.063,0 -0.323,0.1 -0.781,0.1 -0.521,0 -0.977,-0.2 -1.368,-0.6 -0.39,-0.4 -0.585,-0.9 -0.585,-1.4 v -6 c 0,-1 0.421,-1.6 1.265,-1.9 l 4.594,-1.6 v -16 l -3.125,1.1 c -0.063,0.1 -0.323,0.1 -0.781,0.1 -0.521,0 -0.977,-0.2 -1.368,-0.6 -0.39,-0.4 -0.585,-0.8 -0.585,-1.4 v -6 c 0,-0.9 0.421,-1.5 1.265,-1.8 l 4.594,-1.7 v -15.8 c 0,-1.2 0.62,-1.8 1.859,-1.8 1.24,0 1.86,0.6 1.86,1.8 v 14.5 l 8.297,-3.1 V 135 c 0,-1.3 0.617,-1.9 1.851,-1.9 1.234,0 1.852,0.6 1.852,1.9 v 14.5 l 3.234,-1.2 c 0.063,0 0.286,-0.1 0.672,-0.1 0.458,0 0.948,0.2 1.469,0.6 0.395,0.4 0.593,0.9 0.593,1.4 v 6 c 0,1 -0.458,1.6 -1.375,1.9 l -4.593,1.6 v 16 l 3.234,-1.1 c 0.063,-0.1 0.286,-0.1 0.672,-0.1 0.458,0 0.948,0.2 1.469,0.6 0.395,0.4 0.593,0.8 0.593,1.4 v 6 c 0,0.9 -0.458,1.4 -1.375,1.8 l -4.593,1.7 v 15.8 m -3.703,-40.7 -8.297,2.9 v 16.1 l 8.297,-3 v -16"
     id="path1075"
     inkscape:connector-curvature="0" />
  <polyline
     class="LedgerLine"
     points="448.051,441.732 495.965,441.732"
     id="polyline1077"
     style="fill:none;stroke:#000000;stroke-width:4;stroke-linecap:square;stroke-linejoin:bevel"
     transform="translate(-130.54134,-271.1)" />
  <polyline
     class="LedgerLine"
     points="327.725,441.732 375.639,441.732"
     id="polyline1079"
     style="fill:none;stroke:#000000;stroke-width:4;stroke-linecap:square;stroke-linejoin:bevel"
     transform="translate(-130.54134,-271.1)" />
  <path
     class="Note"
     d="m 1670.5686,69.3 c 3.12,0 5.76,0.8 7.92,2.5 2.01,1.7 3.01,3.9 3.01,6.6 0,4.5 -2.3,8.7 -6.92,12.6 -4.69,3.9 -9.7,5.9 -15.05,5.9 -3.12,0 -5.76,-0.9 -7.9,-2.5 -2.02,-1.7 -3.03,-4 -3.03,-6.6 0,-4.5 2.34,-8.7 7.03,-12.6 4.56,-3.9 9.54,-5.9 14.94,-5.9"
     id="path1081"
     inkscape:connector-curvature="0" />
  <path
     class="Note"
     d="m 1550.2386,81.8 c 3.12,0 5.76,0.8 7.92,2.5 2.01,1.7 3.02,3.9 3.02,6.6 0,4.5 -2.31,8.7 -6.93,12.6 -4.68,3.9 -9.7,5.9 -15.04,5.9 -3.13,0 -5.76,-0.9 -7.91,-2.5 -2.02,-1.7 -3.03,-4 -3.03,-6.6 0,-4.5 2.34,-8.7 7.03,-12.6 4.56,-3.9 9.54,-5.9 14.94,-5.9"
     id="path1083"
     inkscape:connector-curvature="0" />
  <path
     class="Note"
     d="m 1429.9086,94.3 c 3.13,0 5.77,0.8 7.93,2.5 2.01,1.7 3.01,3.9 3.01,6.6 0,4.5 -2.31,8.7 -6.92,12.6 -4.69,3.9 -9.7,5.9 -15.05,5.9 -3.12,0 -5.76,-0.9 -7.9,-2.5 -2.02,-1.7 -3.04,-4 -3.04,-6.6 0,-4.5 2.35,-8.7 7.04,-12.6 4.56,-3.9 9.54,-5.9 14.93,-5.9"
     id="path1085"
     inkscape:connector-curvature="0" />
  <path
     class="Note"
     d="m 1309.5886,94.3 c 3.12,0 5.76,0.8 7.92,2.5 2.01,1.7 3.01,3.9 3.01,6.6 0,4.5 -2.3,8.7 -6.92,12.6 -4.68,3.9 -9.7,5.9 -15.04,5.9 -3.13,0 -5.76,-0.9 -7.91,-2.5 -2.02,-1.7 -3.03,-4 -3.03,-6.6 0,-4.5 2.34,-8.7 7.03,-12.6 4.56,-3.9 9.54,-5.9 14.94,-5.9"
     id="path1087"
     inkscape:connector-curvature="0" />
  <path
     class="Note"
     d="m 1189.2586,106.8 c 3.13,0 5.77,0.8 7.92,2.5 2.01,1.7 3.02,3.9 3.02,6.6 0,4.5 -2.31,8.7 -6.92,12.6 -4.69,3.9 -9.71,5.9 -15.05,5.9 -3.12,0 -5.76,-0.9 -7.91,-2.5 -2.02,-1.7 -3.03,-4 -3.03,-6.6 0,-4.5 2.35,-8.7 7.03,-12.6 4.57,-3.9 9.55,-5.9 14.94,-5.9"
     id="path1089"
     inkscape:connector-curvature="0" />
  <path
     class="Note"
     d="m 1068.9386,106.8 c 3.12,0 5.76,0.8 7.92,2.5 2.01,1.7 3.01,3.9 3.01,6.6 0,4.5 -2.3,8.7 -6.92,12.6 -4.69,3.9 -9.7,5.9 -15.05,5.9 -3.12,0 -5.76,-0.9 -7.9,-2.5 -2.02,-1.7 -3.03,-4 -3.03,-6.6 0,-4.5 2.34,-8.7 7.03,-12.6 4.56,-3.9 9.54,-5.9 14.94,-5.9"
     id="path1091"
     inkscape:connector-curvature="0" />
  <path
     class="Note"
     d="m 948.60864,119.3 c 3.12,0 5.76,0.8 7.92,2.5 2.01,1.7 3.02,3.9 3.02,6.6 0,4.5 -2.31,8.7 -6.93,12.6 -4.68,3.9 -9.7,5.9 -15.04,5.9 -3.13,0 -5.76,-0.9 -7.91,-2.5 -2.02,-1.7 -3.03,-4 -3.03,-6.6 0,-4.5 2.34,-8.7 7.03,-12.6 4.56,-3.9 9.54,-5.9 14.94,-5.9"
     id="path1093"
     inkscape:connector-curvature="0" />
  <path
     class="Note"
     d="m 828.28166,119.3 c 3.125,0 5.766,0.8 7.922,2.5 2.011,1.7 3.016,3.9 3.016,6.6 0,4.5 -2.307,8.7 -6.922,12.6 -4.688,3.9 -9.703,5.9 -15.047,5.9 -3.125,0 -5.76,-0.9 -7.906,-2.5 -2.021,-1.7 -3.031,-4 -3.031,-6.6 0,-4.5 2.343,-8.7 7.031,-12.6 4.562,-3.9 9.542,-5.9 14.937,-5.9"
     id="path1095"
     inkscape:connector-curvature="0" />
  <path
     class="Note"
     d="m 707.95566,131.8 c 3.125,0 5.766,0.8 7.922,2.5 2.011,1.7 3.016,3.9 3.016,6.6 0,4.5 -2.307,8.7 -6.922,12.6 -4.688,3.9 -9.703,5.9 -15.047,5.9 -3.125,0 -5.76,-0.9 -7.906,-2.5 -2.021,-1.7 -3.031,-4 -3.031,-6.6 0,-4.5 2.343,-8.7 7.031,-12.6 4.562,-3.9 9.542,-5.9 14.937,-5.9"
     id="path1097"
     inkscape:connector-curvature="0" />
  <path
     class="Note"
     d="m 587.62966,144.3 c 3.125,0 5.766,0.8 7.922,2.5 2.011,1.7 3.016,3.9 3.016,6.6 0,4.5 -2.307,8.7 -6.922,12.6 -4.688,3.9 -9.703,5.9 -15.047,5.9 -3.125,0 -5.76,-0.9 -7.906,-2.5 -2.021,-1.7 -3.031,-4 -3.031,-6.6 0,-4.5 2.343,-8.7 7.031,-12.6 4.562,-3.9 9.542,-5.9 14.937,-5.9"
     id="path1099"
     inkscape:connector-curvature="0" />
  <path
     class="Note"
     d="m 467.30366,144.3 c 3.125,0 5.766,0.8 7.922,2.5 2.011,1.7 3.016,3.9 3.016,6.6 0,4.5 -2.307,8.7 -6.922,12.6 -4.688,3.9 -9.703,5.9 -15.047,5.9 -3.125,0 -5.76,-0.9 -7.906,-2.5 -2.021,-1.7 -3.031,-4 -3.031,-6.6 0,-4.5 2.343,-8.7 7.031,-12.6 4.562,-3.9 9.542,-5.9 14.937,-5.9"
     id="path1101"
     inkscape:connector-curvature="0" />
  <path
     class="Note"
     d="m 346.97766,156.8 c 3.125,0 5.766,0.8 7.922,2.5 2.011,1.7 3.016,3.9 3.016,6.6 0,4.5 -2.307,8.7 -6.922,12.6 -4.688,3.9 -9.703,5.9 -15.047,5.9 -3.125,0 -5.76,-0.9 -7.906,-2.5 -2.021,-1.7 -3.031,-4 -3.031,-6.6 0,-4.5 2.343,-8.7 7.031,-12.6 4.562,-3.9 9.542,-5.9 14.937,-5.9"
     id="path1103"
     inkscape:connector-curvature="0" />
  <path
     class="Note"
     d="m 226.65166,156.8 c 3.125,0 5.766,0.8 7.922,2.5 2.011,1.7 3.016,3.9 3.016,6.6 0,4.5 -2.307,8.7 -6.922,12.6 -4.688,3.9 -9.703,5.9 -15.047,5.9 -3.125,0 -5.76,-0.9 -7.906,-2.5 -2.021,-1.7 -3.031,-4 -3.031,-6.6 0,-4.5 2.343,-8.7 7.031,-12.6 4.562,-3.9 9.542,-5.9 14.937,-5.9"
     id="path1105"
     inkscape:connector-curvature="0" />
  <path
     class="Clef"
     d="m 67.909663,95 c 0,0 0.198,0 0.594,0 0.26,-0.1 0.484,-0.1 0.672,-0.1 7.291,0 13.281,2.6 17.968,7.7 4.688,5.1 7.032,11 7.032,17.8 0,8.4 -3.479,15.2 -10.438,20.5 -1.823,1.4 -4.203,2.6 -7.14,3.5 0.333,4.3 0.5,7.7 0.5,10.3 0,0.5 -0.068,2.4 -0.204,5.6 -0.26,6.1 -2.343,11.3 -6.25,15.8 -3.77,4.3 -8.458,6.5 -14.062,6.5 -5.271,0 -9.76,-1.8 -13.469,-5.6 -3.719002,-3.7 -5.578002,-8.3 -5.578002,-13.6 0,-2.8 1.078,-5.2 3.234,-7.2 2.209002,-1.9 4.776002,-2.9 7.704002,-2.9 2.604,0 4.786,1 6.546,3 1.823,1.9 2.735,4.3 2.735,7.1 0,2.5 -0.912,4.7 -2.735,6.5 -1.822,1.8 -4.005,2.7 -6.546,2.7 -1.042,0 -2.047,-0.2 -3.016,-0.5 2.865,4.2 6.672,6.3 11.422,6.3 4.489,0 8.166,-1.8 11.031,-5.5 3,-3.7 4.63,-8.1 4.891,-13.1 0.125,-3.2 0.187,-5 0.187,-5.4 0,-3.7 -0.13,-6.6 -0.39,-9 -3.25,0.5 -6.146,0.8 -8.688,0.8 -9.052,0 -16.766,-3.6 -23.141002,-10.8 -6.25,-7.2 -9.375,-15.8 -9.375,-25.7 0,-2.1 0.193,-4.2 0.579,-6.4 0.395,-1.7 0.885,-3.7 1.468,-5.8 0.323,-1.1 1.203,-3 2.641,-5.6 0.521,-0.8 1.107,-1.8 1.758,-3 0.651,-1.1 1.107,-1.9 1.367,-2.3 0.646,-1.3 1.911,-3.1 3.797002,-5.3 0.521,-0.6 1.06,-1.2 1.617,-1.9 0.557,-0.7 1.031,-1.3 1.422,-1.8 0.39,-0.4 0.682,-0.8 0.875,-1.1 0.193,-0.2 1.659,-1.9 4.398,-5.1 0.646,-0.7 1.279,-1.4 1.899,-2.1 0.62,-0.8 1.125,-1.4 1.515,-1.8 0.391,-0.4 0.685,-0.7 0.883,-0.9 -2.344,-7.8 -3.812,-13.9 -4.406,-18.6 -0.448,-3.7 -0.672,-8.8 -0.672,-15.2 0,-5.7 1.302,-11 3.906,-15.9 2.532,-5.2 6.078,-9.4 10.641,-12.6 0.26,-0.2 0.583,-0.3 0.969,-0.3 0.458,0 0.786,0.1 0.984,0.3 3.51,4.2 6.537,9.7 9.078,16.5 2.604,6.8 3.906,12.9 3.906,18.5 0,6.2 -1.494,12.1 -4.484,17.5 -3.385,5.8 -7.75,11.8 -13.094,18 1.365,4.3 3.188,11 5.469,20.2 m 8.297,45.4 c 3.385,-1.2 6.026,-3.3 7.922,-6.3 2.083,-2.9 3.125,-6.1 3.125,-9.7 0,-4.6 -1.563,-8.7 -4.688,-12.3 -3.198,-3.7 -7.271,-5.8 -12.218,-6.3 2.802,13.8 4.755,25.3 5.859,34.6 M 38.425661,117.9 c 0,6.4 2.604,12.1 7.812002,17 5.334,4.7 11.323,7.1 17.969,7.1 2.729,0 5.396,-0.2 8,-0.6 -1.042,-9.9 -3.094,-21.8 -6.156,-35.6 -3.709,0.4 -6.667,1.7 -8.875,4 -2.157,2.2 -3.235,4.8 -3.235,7.7 0,4.9 2.641,8.9 7.922,12 0.448,0.4 0.672,0.9 0.672,1.5 0,0.5 -0.224,1 -0.672,1.4 -0.396,0.5 -0.885,0.7 -1.469,0.7 -0.062,0 -0.354,-0.1 -0.875,-0.2 -3.718,-2 -6.583,-4.6 -8.593,-7.8 -1.896,-3.4 -2.844,-6.8 -2.844,-10.3 0,-4.5 1.401,-8.5 4.203,-12.2 2.927,-3.6 6.734,-6 11.422,-7 -1.823,-7.3 -3.318,-13 -4.484,-17.1 -1.042,1.2 -2.295,2.6 -3.758,4.3 -1.464,1.6 -2.326,2.6 -2.586,2.9 -2.344,3.1 -4.136,5.5 -5.375,7.2 -2.219,3 -3.849,5.7 -4.891,7.9 -1.104,2.4 -2.078002,5.1 -2.922002,8.1 -0.843,2.8 -1.265,5.8 -1.265,9 M 71.034663,18.5 c -4.885,2.5 -8.724,5.9 -11.516,10.4 -2.864,4.6 -4.296,9.6 -4.296,14.9 0,4.7 1.171,11 3.515,19 4.688,-5.7 8.203,-10.9 10.547,-15.7 2.469,-5.1 3.703,-10.4 3.703,-16 0,-4.1 -0.651,-8.3 -1.953,-12.6"
     id="path1107"
     inkscape:connector-curvature="0" />
</svg>
