<?xml version="1.0" encoding="UTF-8" standalone="no"?>
<svg
   xmlns:dc="http://purl.org/dc/elements/1.1/"
   xmlns:cc="http://creativecommons.org/ns#"
   xmlns:rdf="http://www.w3.org/1999/02/22-rdf-syntax-ns#"
   xmlns:svg="http://www.w3.org/2000/svg"
   xmlns="http://www.w3.org/2000/svg"
   xmlns:sodipodi="http://sodipodi.sourceforge.net/DTD/sodipodi-0.dtd"
   xmlns:inkscape="http://www.inkscape.org/namespaces/inkscape"
   width="1422"
   height="220"
   viewBox="0 0 1422 220"
   version="1.2"
   id="svg5291"
   sodipodi:docname="staff-basic.svg"
   inkscape:version="0.92.2 (5c3e80d, 2017-08-06)">
  <metadata
     id="metadata5297">
    <rdf:RDF>
      <cc:Work
         rdf:about="">
        <dc:format>image/svg+xml</dc:format>
        <dc:type
           rdf:resource="http://purl.org/dc/dcmitype/StillImage" />
        <dc:title>Untitled-4</dc:title>
      </cc:Work>
    </rdf:RDF>
  </metadata>
  <defs
     id="defs5295" />
  <sodipodi:namedview
     pagecolor="#ffffff"
     bordercolor="#666666"
     borderopacity="1"
     objecttolerance="10"
     gridtolerance="10"
     guidetolerance="10"
     inkscape:pageopacity="0"
     inkscape:pageshadow="2"
     inkscape:window-width="1920"
     inkscape:window-height="1017"
     id="namedview5293"
     showgrid="false"
     inkscape:zoom="0.2229798"
     inkscape:cx="1530"
     inkscape:cy="724.28086"
     inkscape:window-x="-8"
     inkscape:window-y="-8"
     inkscape:window-maximized="1"
     inkscape:current-layer="svg5291" />
  <title
     id="title5251">Untitled-4</title>
  <desc
     id="desc5253">Generated by MuseScore 3.0.5</desc>
  <path
     transform="translate(-119.20951,-254.2265)"
     style="fill:none;stroke:#000000;stroke-width:2;stroke-linejoin:bevel"
     d="M 141.732,316.732 H 1521.45"
     id="polyline5255" />
  <path
     transform="translate(-119.20951,-254.2265)"
     style="fill:none;stroke:#000000;stroke-width:2;stroke-linejoin:bevel"
     d="M 141.732,341.732 H 1521.45"
     id="polyline5257" />
  <path
     transform="translate(-119.20951,-254.2265)"
     style="fill:none;stroke:#000000;stroke-width:2;stroke-linejoin:bevel"
     d="M 141.732,366.732 H 1521.45"
     id="polyline5259" />
  <path
     transform="translate(-119.20951,-254.2265)"
     style="fill:none;stroke:#000000;stroke-width:2;stroke-linejoin:bevel"
     d="M 141.732,391.732 H 1521.45"
     id="polyline5261" />
  <path
     transform="translate(-119.20951,-254.2265)"
     style="fill:none;stroke:#000000;stroke-width:2;stroke-linejoin:bevel"
     d="M 141.732,416.732 H 1521.45"
     id="polyline5263" />
  <path
     transform="translate(-119.20951,-254.2265)"
     style="fill:none;stroke:#000000;stroke-width:4;stroke-linejoin:bevel"
     d="m 1519.45,315.732 v 102"
     id="polyline5265" />
  <path
     transform="translate(-119.20951,-254.2265)"
     style="fill:none;stroke:#000000;stroke-width:4;stroke-linecap:square;stroke-linejoin:bevel"
     d="m 341.904,441.732 h 47.914"
     id="polyline5267" />
  <path
     class="Note"
     d="m 1274.2005,86.2405 c 3.13,0 5.77,0.812 7.93,2.437 2.01,1.761 3.01,3.974 3.01,6.641 0,4.49 -2.31,8.687 -6.92,12.594 -4.69,3.906 -9.7,5.859 -15.05,5.859 -3.12,0 -5.76,-0.812 -7.9,-2.437 -2.02,-1.761 -3.03,-3.974 -3.03,-6.641 0,-4.49 2.34,-8.688 7.03,-12.594 4.56,-3.906 9.54,-5.859 14.93,-5.859"
     id="path5269"
     inkscape:connector-curvature="0" />
  <path
     class="Note"
     d="m 1128.2005,98.7405 c 3.12,0 5.76,0.812 7.92,2.437 2.01,1.761 3.02,3.974 3.02,6.641 0,4.49 -2.31,8.687 -6.93,12.594 -4.68,3.906 -9.7,5.859 -15.04,5.859 -3.13,0 -5.76,-0.812 -7.91,-2.437 -2.02,-1.761 -3.03,-3.974 -3.03,-6.641 0,-4.49 2.34,-8.688 7.03,-12.594 4.56,-3.906 9.54,-5.859 14.94,-5.859"
     id="path5271"
     inkscape:connector-curvature="0" />
  <path
     class="Note"
     d="m 982.1905,111.2405 c 3.13,0 5.77,0.812 7.92,2.437 2.02,1.761 3.02,3.974 3.02,6.641 0,4.49 -2.31,8.687 -6.92,12.594 -4.69,3.906 -9.7,5.859 -15.05,5.859 -3.12,0 -5.76001,-0.812 -7.90001,-2.437 -2.03,-1.761 -3.04,-3.974 -3.04,-6.641 0,-4.49 2.35,-8.688 7.04001,-12.594 4.56,-3.906 9.54,-5.859 14.93,-5.859"
     id="path5273"
     inkscape:connector-curvature="0" />
  <path
     class="Note"
     d="m 836.18749,123.7405 c 3.125,0 5.765,0.812 7.922,2.437 2.01,1.761 3.015,3.974 3.015,6.641 0,4.49 -2.307,8.687 -6.922,12.594 -4.687,3.906 -9.703,5.859 -15.046,5.859 -3.125,0 -5.761,-0.812 -7.907,-2.437 -2.02,-1.761 -3.031,-3.974 -3.031,-6.641 0,-4.49 2.344,-8.688 7.031,-12.594 4.563,-3.906 9.542,-5.859 14.938,-5.859"
     id="path5275"
     inkscape:connector-curvature="0" />
  <path
     class="Note"
     d="m 690.18149,136.2405 c 3.125,0 5.766,0.812 7.922,2.437 2.01,1.761 3.015,3.974 3.015,6.641 0,4.49 -2.307,8.687 -6.921,12.594 -4.688,3.906 -9.704,5.859 -15.047,5.859 -3.125,0 -5.761,-0.812 -7.907,-2.437 -2.02,-1.761 -3.031,-3.974 -3.031,-6.641 0,-4.49 2.344,-8.688 7.031,-12.594 4.563,-3.906 9.542,-5.859 14.938,-5.859"
     id="path5277"
     inkscape:connector-curvature="0" />
  <path
     class="Note"
     d="m 544.17549,148.7405 c 3.125,0 5.766,0.812 7.922,2.437 2.01,1.761 3.015,3.974 3.015,6.641 0,4.49 -2.307,8.687 -6.921,12.594 -4.688,3.906 -9.704,5.859 -15.047,5.859 -3.125,0 -5.761,-0.812 -7.907,-2.437 -2.02,-1.761 -3.031,-3.974 -3.031,-6.641 0,-4.49 2.344,-8.688 7.031,-12.594 4.563,-3.906 9.542,-5.859 14.938,-5.859"
     id="path5279"
     inkscape:connector-curvature="0" />
  <path
     class="Note"
     d="m 398.16949,161.2405 c 3.125,0 5.766,0.812 7.922,2.437 2.01,1.761 3.015,3.974 3.015,6.641 0,4.49 -2.307,8.687 -6.921,12.594 -4.688,3.906 -9.704,5.859 -15.047,5.859 -3.125,0 -5.761,-0.812 -7.907,-2.437 -2.02,-1.761 -3.031,-3.974 -3.031,-6.641 0,-4.49 2.344,-8.688 7.031,-12.594 4.563,-3.906 9.542,-5.859 14.938,-5.859"
     id="path5281"
     inkscape:connector-curvature="0" />
  <path
     class="Note"
     d="m 252.16349,173.7405 c 3.125,0 5.766,0.812 7.922,2.437 2.01,1.761 3.016,3.974 3.016,6.641 0,4.49 -2.308,8.687 -6.922,12.594 -4.688,3.906 -9.703,5.859 -15.047,5.859 -3.125,0 -5.761,-0.812 -7.906,-2.437 -2.021,-1.761 -3.032,-3.974 -3.032,-6.641 0,-4.49 2.344,-8.688 7.032,-12.594 4.562,-3.906 9.541,-5.859 14.937,-5.859"
     id="path5283"
     inkscape:connector-curvature="0" />
  <path
     class="Clef"
     d="m 79.24149,111.9125 c 0,0 0.198,0 0.594,0 0.26,-0.063 0.484,-0.094 0.672,-0.094 7.291,0 13.281,2.573 17.968,7.719 4.688,5.073 7.032,10.994 7.032,17.765 0,8.407 -3.479,15.245 -10.438,20.516 -1.823,1.437 -4.203,2.609 -7.14,3.516 0.333,4.229 0.5,7.645 0.5,10.25 0,0.52 -0.068,2.411 -0.204,5.671 -0.26,6.053 -2.343,11.292 -6.25,15.719 -3.77,4.365 -8.458,6.547 -14.062,6.547 -5.271003,0 -9.760003,-1.854 -13.469003,-5.562 -3.719,-3.782 -5.578,-8.339 -5.578,-13.672 0,-2.802 1.078,-5.183 3.234,-7.141 2.209,-1.948 4.776,-2.922 7.704,-2.922 2.604,0 4.786,1.011 6.546003,3.031 1.823,1.886 2.735,4.23 2.735,7.032 0,2.531 -0.912,4.708 -2.735,6.531 -1.822003,1.823 -4.005003,2.734 -6.546003,2.734 -1.042,0 -2.047,-0.192 -3.016,-0.578 2.865,4.229 6.672,6.344 11.422003,6.344 4.489,0 8.166,-1.823 11.031,-5.469 3,-3.771 4.63,-8.166 4.891,-13.187 0.125,-3.125 0.187,-4.912 0.187,-5.36 0,-3.646 -0.13,-6.64 -0.39,-8.984 -3.25,0.521 -6.146,0.781 -8.688,0.781 -9.052,0 -16.766003,-3.583 -23.141003,-10.75 -6.25,-7.229 -9.375,-15.823 -9.375,-25.781 0,-2.083 0.193,-4.198 0.579,-6.344 0.395,-1.76 0.885,-3.682 1.468,-5.765 0.323,-1.178 1.203,-3.068 2.641,-5.672 0.521,-0.782 1.107,-1.758 1.758,-2.93 0.651,-1.172 1.107,-1.951 1.367,-2.336 0.646,-1.302 1.911,-3.062 3.797,-5.281 0.521,-0.584 1.06,-1.232 1.617,-1.945 0.557,-0.714 1.031,-1.3 1.422,-1.758 0.39,-0.459 0.682,-0.818 0.875,-1.078 0.193,-0.261 1.659,-1.985 4.398,-5.172 0.646,-0.657 1.279,-1.357 1.899,-2.102 0.62,-0.745 1.125,-1.331 1.515003,-1.758 0.391,-0.427 0.685,-0.734 0.883,-0.922 -2.344003,-7.75 -3.812003,-13.937001 -4.406003,-18.562001 -0.448,-3.708 -0.672,-8.787 -0.672,-15.234 0,-5.667 1.302,-10.974 3.906,-15.922 2.532003,-5.136 6.078003,-9.334 10.641003,-12.594 0.26,-0.198 0.583,-0.297 0.969,-0.297 0.458,0 0.786,0.099 0.984,0.297 3.51,4.229 6.537,9.729 9.078,16.5 2.604,6.771 3.906,12.927 3.906,18.469 0,6.25 -1.494,12.109 -4.484,17.578001 -3.385,5.791 -7.75,11.781 -13.094,17.969 1.365,4.291 3.188,11.026 5.469,20.203 m 8.297,45.422 c 3.385,-1.24 6.026,-3.355 7.922,-6.344 2.083,-2.865 3.125,-6.089 3.125,-9.672 0,-4.625 -1.563,-8.729 -4.688,-12.313 -3.198,-3.708 -7.271,-5.791 -12.218,-6.25 2.802,13.74 4.755,25.266 5.859,34.579 m -37.781003,-22.563 c 0,6.448 2.604,12.115 7.812,17 5.334,4.75 11.323003,7.125 17.969003,7.125 2.729,0 5.396,-0.198 8,-0.594 -1.042,-9.896 -3.094,-21.744 -6.156,-35.547 -3.709,0.396 -6.667,1.698 -8.875,3.907 -2.157,2.281 -3.235003,4.854 -3.235003,7.718 0,4.948 2.641003,8.954 7.922003,12.016 0.448,0.458 0.672,0.948 0.672,1.469 0,0.521 -0.224,1.005 -0.672,1.453 -0.396,0.458 -0.885,0.687 -1.469,0.687 -0.062,0 -0.354,-0.062 -0.875,-0.187 -3.718,-2.021 -6.583003,-4.625 -8.593003,-7.813 -1.896,-3.395 -2.844,-6.817 -2.844,-10.265 0,-4.49 1.401,-8.557 4.203,-12.203 2.927003,-3.646 6.734003,-5.99 11.422003,-7.032 -1.823,-7.291 -3.318,-12.989 -4.484,-17.093 -1.042,1.177 -2.295,2.593 -3.758,4.25 -1.464003,1.656 -2.326003,2.651 -2.586003,2.984 -2.344,3.052 -4.136,5.427 -5.375,7.125 -2.219,3.063 -3.849,5.698 -4.891,7.906 -1.104,2.479 -2.078,5.183 -2.922,8.11 -0.843,2.802 -1.265,5.797 -1.265,8.984 M 82.36649,35.459499 c -4.885,2.406 -8.724,5.854 -11.516,10.343 -2.864,4.625 -4.296,9.604 -4.296,14.938 0,4.687 1.171,11.005001 3.515,18.953001 4.688,-5.667 8.203,-10.906001 10.547,-15.719001 2.469,-5.083 3.703,-10.39 3.703,-15.922 0,-4.166 -0.651,-8.364 -1.953,-12.593"
     id="path5285"
     inkscape:connector-curvature="0" />
</svg>
