<?xml version="1.0" encoding="UTF-8" standalone="no"?>
<!-- Created with Inkscape (http://www.inkscape.org/) -->

<svg
   xmlns:dc="http://purl.org/dc/elements/1.1/"
   xmlns:cc="http://creativecommons.org/ns#"
   xmlns:rdf="http://www.w3.org/1999/02/22-rdf-syntax-ns#"
   xmlns:svg="http://www.w3.org/2000/svg"
   xmlns="http://www.w3.org/2000/svg"
   xmlns:sodipodi="http://sodipodi.sourceforge.net/DTD/sodipodi-0.dtd"
   xmlns:inkscape="http://www.inkscape.org/namespaces/inkscape"
   width="2436"
   height="1242"
   viewBox="0 0 644.52498 328.61251"
   version="1.1"
   id="svg8"
   inkscape:version="0.92.2 (5c3e80d, 2017-08-06)"
   sodipodi:docname="simon-sings-splash-2.svg">
  <defs
     id="defs2" />
  <sodipodi:namedview
     id="base"
     pagecolor="#ffffff"
     bordercolor="#666666"
     borderopacity="1.0"
     inkscape:pageopacity="0.0"
     inkscape:pageshadow="2"
     inkscape:zoom="0.35"
     inkscape:cx="1139.7036"
     inkscape:cy="659.81313"
     inkscape:document-units="mm"
     inkscape:current-layer="g846"
     showgrid="false"
     units="px"
     inkscape:window-width="1920"
     inkscape:window-height="1017"
     inkscape:window-x="-8"
     inkscape:window-y="-8"
     inkscape:window-maximized="1" />
  <metadata
     id="metadata5">
    <rdf:RDF>
      <cc:Work
         rdf:about="">
        <dc:format>image/svg+xml</dc:format>
        <dc:type
           rdf:resource="http://purl.org/dc/dcmitype/StillImage" />
        <dc:title></dc:title>
      </cc:Work>
    </rdf:RDF>
  </metadata>
  <g
     inkscape:label="Layer 1"
     inkscape:groupmode="layer"
     id="layer1"
     transform="translate(0,31.612536)">
    <rect
       style="fill:#0277bd;fill-rule:evenodd;stroke-width:0.26397195;fill-opacity:1"
       id="rect815"
       width="644.52502"
       height="328.61249"
       x="-1.2207031e-005"
       y="-31.61253"
       rx="0.019078152" />
    <g
       id="g846"
       transform="translate(181.66484,-6.2840558)">
      <g
         inkscape:label="Layer 2"
         id="layer2">
        <circle
           r="132.29167"
           cy="136.15239"
           cx="135.76906"
           id="path4514"
           style="fill:#0277bd;fill-opacity:1;fill-rule:evenodd;stroke-width:0.2204861" />
      </g>
      <g
         transform="translate(4.828601,-22.706723)"
         id="layer1-6"
         inkscape:label="Layer 1">
        <path
           inkscape:connector-curvature="0"
           id="text4506"
           d="m 141.81339,68.301046 c -16.93432,0 -30.65541,4.385194 -41.16338,13.156303 -10.421122,8.77111 -15.631602,20.408321 -15.631602,34.911041 0,10.07375 2.34469,18.10665 7.0342,24.09879 4.6895,5.9053 10.464472,10.29101 17.325042,13.15682 6.86057,2.77896 15.93566,5.60086 27.22521,8.46667 13.0264,3.56055 22.05811,6.73053 27.09499,9.50949 5.03687,2.77897 8.98824,6.47005 11.85405,11.07271 2.95265,4.60266 4.42867,10.42101 4.42867,17.45527 0,13.98167 -4.34181,23.88154 -13.02608,29.69999 -8.59742,5.81846 -20.71235,8.72764 -36.34403,8.72764 -6.33952,0 -14.32903,-1.21573 -23.96856,-3.64733 -0.50079,-0.12632 -0.98963,-0.25303 -1.47588,-0.37982 a 17.916153,17.916153 0 0 0 -17.706932,-15.29312 17.916153,17.916153 0 0 0 -17.9157,17.91622 17.916153,17.916153 0 0 0 17.9157,17.91622 17.916153,17.916153 0 0 0 15.741162,-9.36429 c 0.37021,0.0927 0.71696,0.18433 1.09709,0.2775 8.85795,2.17107 17.36856,3.25613 25.53177,3.25613 19.80013,0 35.04114,-4.34181 45.72279,-13.02607 10.76849,-8.77111 16.1525,-20.97281 16.1525,-36.60449 0,-10.68165 -2.51821,-19.10498 -7.55509,-25.27081 -4.95003,-6.25267 -10.81228,-10.76852 -17.58601,-13.54749 -6.77373,-2.86581 -16.15249,-5.94903 -28.13678,-9.24905 -10.68165,-2.95265 -18.71454,-5.55763 -24.09879,-7.81554 -5.38424,-2.25791 -9.68319,-5.47127 -12.89637,-9.63972 -3.126332,-4.16845 -4.689122,-9.90003 -4.689122,-17.19482 0,-11.55007 3.603802,-20.798691 10.811752,-27.746105 7.29478,-6.947413 18.45428,-10.421069 33.47805,-10.421069 6.33952,0.08684 12.15787,0.694706 17.45527,1.823662 2.98517,0.625919 5.70706,1.321099 8.18503,2.080492 a 17.916153,17.916153 0 0 0 -0.51005,4.157885 17.916153,17.916153 0 0 0 17.91622,17.915705 17.916153,17.916153 0 0 0 17.91622,-17.915705 17.916153,17.916153 0 0 0 -17.91622,-17.916218 17.916153,17.916153 0 0 0 -11.08614,3.845759 c -10.15489,-2.939275 -20.54745,-4.41265 -31.17898,-4.41265 z"
           style="font-style:normal;font-variant:normal;font-weight:300;font-stretch:normal;font-size:266.78067017px;line-height:32;font-family:Corbel;-inkscape-font-specification:'Corbel, Light';font-variant-ligatures:normal;font-variant-caps:normal;font-variant-numeric:normal;font-feature-settings:normal;text-align:start;letter-spacing:0px;word-spacing:0px;writing-mode:lr-tb;text-anchor:start;fill:#000000;fill-opacity:1;stroke:none;stroke-width:3.57293367" />
      </g>
    </g>
  </g>
</svg>
